<svg width="559" height="216" viewBox="0 0 559 216" fill="none" xmlns="http://www.w3.org/2000/svg">
<path d="M0 131.941V53.202L70.2266 0V164.926L0 131.941Z" fill="url(#paint0_linear_238_61)"/>
<path d="M140.453 131.941V53.202L70.2266 0V164.926L140.453 131.941Z" fill="url(#paint1_linear_238_61)"/>
<path d="M0 144.709L70.2266 177.695V216L0 173.438V144.709Z" fill="url(#paint2_linear_238_61)"/>
<path d="M140.453 144.709L70.2266 177.695V216L140.453 172.374V144.709Z" fill="url(#paint3_linear_238_61)"/>
<path d="M218.971 59.3601C218.971 44.4326 218.369 41.2203 214.756 35.7406C210.341 29.5051 201.913 25.537 192.48 25.537C183.048 25.537 174.62 29.5051 170.204 35.7406C166.592 41.2203 165.99 44.4326 165.99 59.3601V121.338C165.99 136.265 166.592 139.477 170.204 144.957C174.62 151.382 183.048 155.35 192.48 155.35C201.913 155.35 210.341 151.382 214.756 144.957C218.369 139.477 218.971 136.454 218.971 121.338V59.3601ZM200.307 128.707C200.307 135.887 197.899 138.911 192.48 138.911C186.861 138.911 184.654 135.887 184.654 128.707V52.1798C184.654 44.9995 187.062 41.9762 192.48 41.9762C198.1 41.9762 200.307 44.9995 200.307 52.1798V128.707Z" fill="black"/>
<path d="M234.588 153.46H279.742V137.021H253.252V27.4265H234.588V153.46Z" fill="black"/>
<path d="M290.965 116.992C290.764 120.015 290.764 121.149 290.764 123.794C290.764 134.754 292.169 140.044 296.584 145.713C301.802 152.326 308.825 155.35 318.86 155.35C336.319 155.35 346.153 145.902 346.153 129.085C346.153 118.314 341.336 105.465 332.707 93.5612L323.275 80.7121C310.832 63.1392 310.03 61.4386 310.03 53.6914C310.03 46.1332 312.839 41.9762 317.856 41.9762C322.071 41.9762 325.081 44.8105 325.683 49.9123C326.084 52.5577 326.285 54.8252 326.285 61.2497L344.547 59.5491C344.547 49.1565 344.547 48.5896 343.544 43.8657C340.935 32.3394 331.703 25.537 319.06 25.537C302.203 25.537 291.567 36.1185 291.567 52.7467C291.567 63.8951 295.38 72.587 306.819 88.8373L316.05 101.686C325.282 113.213 327.489 118.125 327.489 126.44C327.489 134.565 324.679 138.911 319.06 138.911C311.836 138.911 309.428 134.754 309.428 121.716V116.236L290.965 116.992Z" fill="black"/>
<path d="M358.578 116.992C358.377 120.015 358.377 121.149 358.377 123.794C358.377 134.754 359.782 140.044 364.197 145.713C369.415 152.326 376.439 155.35 386.473 155.35C403.932 155.35 413.766 145.902 413.766 129.085C413.766 118.314 408.95 105.465 400.32 93.5612L390.888 80.7121C378.446 63.1392 377.643 61.4386 377.643 53.6914C377.643 46.1332 380.452 41.9762 385.47 41.9762C389.684 41.9762 392.694 44.8105 393.296 49.9123C393.698 52.5577 393.898 54.8252 393.898 61.2497L412.16 59.5491C412.16 49.1565 412.16 48.5896 411.157 43.8657C408.548 32.3394 399.317 25.537 386.674 25.537C369.816 25.537 359.18 36.1185 359.18 52.7467C359.18 63.8951 362.993 72.587 374.432 88.8373L383.663 101.686C392.895 113.213 395.102 118.125 395.102 126.44C395.102 134.565 392.293 138.911 386.674 138.911C379.449 138.911 377.041 134.754 377.041 121.716V116.236L358.578 116.992Z" fill="black"/>
<path d="M480.409 59.3601C480.409 44.4326 479.807 41.2203 476.194 35.7406C471.779 29.5051 463.351 25.537 453.918 25.537C444.486 25.537 436.058 29.5051 431.643 35.7406C428.03 41.2203 427.428 44.4326 427.428 59.3601V121.338C427.428 136.265 428.03 139.477 431.643 144.957C436.058 151.382 444.486 155.35 453.918 155.35C463.351 155.35 471.779 151.382 476.194 144.957C479.807 139.477 480.409 136.454 480.409 121.338V59.3601ZM461.745 128.707C461.745 135.887 459.337 138.911 453.918 138.911C448.299 138.911 446.092 135.887 446.092 128.707V52.1798C446.092 44.9995 448.5 41.9762 453.918 41.9762C459.538 41.9762 461.745 44.9995 461.745 52.1798V128.707Z" fill="black"/>
<path d="M555.429 27.4265H536.765V101.686L512.081 27.4265H496.026V153.46H514.69V87.3256L536.765 153.46H555.429V27.4265Z" fill="black"/>
<circle cx="292.355" cy="175.567" r="5.3202" fill="#E9322E"/>
<circle cx="407.143" cy="175.567" r="5.3202" fill="#E9322E"/>
<path d="M179.488 183L175.168 176.472C177.352 176.28 179.32 174.696 179.32 171.816C179.32 168.864 177.232 166.992 174.304 166.992H167.872V183H169.864V176.64H173.056L177.136 183H179.488ZM174.064 174.888H169.864V168.768H174.064C175.96 168.768 177.256 170.016 177.256 171.816C177.256 173.616 175.96 174.888 174.064 174.888ZM189.77 183.288C194.498 183.288 197.714 179.736 197.714 175.008C197.714 170.28 194.498 166.728 189.77 166.728C185.018 166.728 181.826 170.28 181.826 175.008C181.826 179.736 185.018 183.288 189.77 183.288ZM189.77 181.512C186.17 181.512 183.89 178.728 183.89 175.008C183.89 171.264 186.17 168.504 189.77 168.504C193.346 168.504 195.65 171.264 195.65 175.008C195.65 178.728 193.346 181.512 189.77 181.512ZM208.121 183.288C212.849 183.288 216.065 179.736 216.065 175.008C216.065 170.28 212.849 166.728 208.121 166.728C203.369 166.728 200.177 170.28 200.177 175.008C200.177 179.736 203.369 183.288 208.121 183.288ZM208.121 181.512C204.521 181.512 202.241 178.728 202.241 175.008C202.241 171.264 204.521 168.504 208.121 168.504C211.697 168.504 214.001 171.264 214.001 175.008C214.001 178.728 211.697 181.512 208.121 181.512ZM221.169 183V175.704H229.497V173.928H221.169V168.768H229.665V166.992H219.177V183H221.169ZM234.364 183V166.992H232.372V183H234.364ZM251.362 183V166.992H249.37V179.496L240.154 166.992H238.114V183H240.106V170.232L249.442 183H251.362ZM262.69 183.312C265.306 183.312 267.49 182.208 268.978 180.552V174.768H261.49V176.544H266.986V179.808C266.194 180.6 264.61 181.536 262.69 181.536C259.186 181.536 256.522 178.8 256.522 175.008C256.522 171.192 259.186 168.504 262.69 168.504C264.61 168.504 266.314 169.416 267.322 170.712L268.906 169.728C267.49 167.976 265.522 166.728 262.69 166.728C258.13 166.728 254.458 170.04 254.458 175.008C254.458 179.976 258.13 183.312 262.69 183.312Z" fill="black"/>
<path d="M330.544 183V166.992H327.688L322.696 179.04L317.728 166.992H314.872V183H316.864V169.824L322.288 183H323.104L328.552 169.824V183H330.544ZM344.766 183V181.224H336.27V175.704H344.598V173.928H336.27V168.768H344.766V166.992H334.278V183H344.766ZM353.894 183V168.768H358.982V166.992H346.838V168.768H351.902V183H353.894ZM373.717 183L367.261 166.992H364.789L358.357 183H360.637L362.053 179.448H370.021L371.437 183H373.717ZM369.421 177.672H362.629L366.037 169.056L369.421 177.672ZM385.242 183V181.224H377.802V166.992H375.81V183H385.242Z" fill="black"/>
<path d="M436.056 183.288C440.376 183.288 441.96 180.912 441.96 178.584C441.96 172.608 432.48 174.672 432.48 171.072C432.48 169.56 433.848 168.528 435.768 168.528C437.52 168.528 439.2 169.128 440.4 170.448L441.6 168.984C440.256 167.568 438.36 166.752 435.912 166.752C432.768 166.752 430.416 168.552 430.416 171.192C430.416 176.904 439.896 174.624 439.896 178.752C439.896 179.976 438.984 181.512 436.128 181.512C433.872 181.512 432.144 180.408 431.088 179.232L429.912 180.744C431.232 182.232 433.272 183.288 436.056 183.288ZM452.231 183.288C456.959 183.288 460.175 179.736 460.175 175.008C460.175 170.28 456.959 166.728 452.231 166.728C447.479 166.728 444.287 170.28 444.287 175.008C444.287 179.736 447.479 183.288 452.231 183.288ZM452.231 181.512C448.631 181.512 446.351 178.728 446.351 175.008C446.351 171.264 448.631 168.504 452.231 168.504C455.807 168.504 458.111 171.264 458.111 175.008C458.111 178.728 455.807 181.512 452.231 181.512ZM472.718 183V181.224H465.278V166.992H463.286V183H472.718ZM481.392 183.288C485.736 183.288 487.92 180.744 487.92 176.76V166.992H485.928V176.736C485.928 179.664 484.344 181.512 481.392 181.512C478.44 181.512 476.856 179.664 476.856 176.736V166.992H474.864V176.784C474.864 180.72 477.048 183.288 481.392 183.288ZM497.621 183V168.768H502.709V166.992H490.565V168.768H495.629V183H497.621ZM507.348 183V166.992H505.356V183H507.348ZM518.395 183.288C523.123 183.288 526.339 179.736 526.339 175.008C526.339 170.28 523.123 166.728 518.395 166.728C513.643 166.728 510.451 170.28 510.451 175.008C510.451 179.736 513.643 183.288 518.395 183.288ZM518.395 181.512C514.795 181.512 512.515 178.728 512.515 175.008C512.515 171.264 514.795 168.504 518.395 168.504C521.971 168.504 524.275 171.264 524.275 175.008C524.275 178.728 521.971 181.512 518.395 181.512ZM542.698 183V166.992H540.706V179.496L531.49 166.992H529.45V183H531.442V170.232L540.778 183H542.698ZM551.626 183.288C555.946 183.288 557.53 180.912 557.53 178.584C557.53 172.608 548.05 174.672 548.05 171.072C548.05 169.56 549.418 168.528 551.338 168.528C553.09 168.528 554.77 169.128 555.97 170.448L557.17 168.984C555.826 167.568 553.93 166.752 551.482 166.752C548.338 166.752 545.986 168.552 545.986 171.192C545.986 176.904 555.466 174.624 555.466 178.752C555.466 179.976 554.554 181.512 551.698 181.512C549.442 181.512 547.714 180.408 546.658 179.232L545.482 180.744C546.802 182.232 548.842 183.288 551.626 183.288Z" fill="black"/>
<defs>
<linearGradient id="paint0_linear_238_61" x1="35.1133" y1="0" x2="35.1133" y2="164.926" gradientUnits="userSpaceOnUse">
<stop stop-color="#E9322E"/>
<stop offset="1" stop-color="#E9322E"/>
</linearGradient>
<linearGradient id="paint1_linear_238_61" x1="70.2266" y1="94.6995" x2="143.645" y2="94.6995" gradientUnits="userSpaceOnUse">
<stop stop-color="#802B26"/>
<stop offset="0.724881" stop-color="#E9322E"/>
</linearGradient>
<linearGradient id="paint2_linear_238_61" x1="71.2906" y1="195.783" x2="-1.06404" y2="161.734" gradientUnits="userSpaceOnUse">
<stop stop-color="#161616"/>
<stop offset="1" stop-color="#333333"/>
</linearGradient>
<linearGradient id="paint3_linear_238_61" x1="75.5468" y1="205.36" x2="142.581" y2="172.374" gradientUnits="userSpaceOnUse">
<stop/>
<stop offset="1" stop-color="#333333"/>
</linearGradient>
</defs>
</svg>
