<svg width="556" height="216" viewBox="0 0 556 216" fill="none" xmlns="http://www.w3.org/2000/svg">
<path d="M0 131.941V53.202L70.2266 0V164.926L0 131.941Z" fill="url(#paint0_linear_5005_8)"/>
<path d="M140.453 131.941V53.202L70.2266 0V164.926L140.453 131.941Z" fill="url(#paint1_linear_5005_8)"/>
<path d="M0 144.709L70.2266 177.695V216L0 173.438V144.709Z" fill="url(#paint2_linear_5005_8)"/>
<path d="M140.453 144.709L70.2266 177.695V216L140.453 172.374V144.709Z" fill="url(#paint3_linear_5005_8)"/>
<path d="M218.971 59.3601C218.971 44.4326 218.369 41.2203 214.756 35.7406C210.341 29.5051 201.913 25.537 192.48 25.537C183.048 25.537 174.62 29.5051 170.204 35.7406C166.592 41.2203 165.99 44.4326 165.99 59.3601V121.338C165.99 136.265 166.592 139.477 170.204 144.957C174.62 151.382 183.048 155.35 192.48 155.35C201.913 155.35 210.341 151.382 214.756 144.957C218.369 139.477 218.971 136.454 218.971 121.338V59.3601ZM200.307 128.707C200.307 135.887 197.899 138.911 192.48 138.911C186.861 138.911 184.654 135.887 184.654 128.707V52.1798C184.654 44.9995 187.062 41.9762 192.48 41.9762C198.1 41.9762 200.307 44.9995 200.307 52.1798V128.707Z" fill="white"/>
<path d="M234.588 153.46H279.742V137.021H253.252V27.4265H234.588V153.46Z" fill="white"/>
<path d="M290.965 116.992C290.764 120.015 290.764 121.149 290.764 123.794C290.764 134.754 292.169 140.044 296.584 145.713C301.801 152.326 308.825 155.35 318.86 155.35C336.319 155.35 346.153 145.902 346.153 129.085C346.153 118.314 341.336 105.465 332.707 93.5612L323.275 80.7121C310.832 63.1392 310.03 61.4386 310.03 53.6914C310.03 46.1332 312.839 41.9762 317.856 41.9762C322.071 41.9762 325.081 44.8105 325.683 49.9123C326.084 52.5577 326.285 54.8252 326.285 61.2497L344.547 59.5491C344.547 49.1565 344.547 48.5896 343.544 43.8657C340.935 32.3394 331.703 25.537 319.06 25.537C302.203 25.537 291.567 36.1185 291.567 52.7467C291.567 63.8951 295.38 72.587 306.819 88.8373L316.05 101.686C325.282 113.213 327.489 118.125 327.489 126.44C327.489 134.565 324.679 138.911 319.06 138.911C311.836 138.911 309.427 134.754 309.427 121.716V116.236L290.965 116.992Z" fill="white"/>
<path d="M358.578 116.992C358.377 120.015 358.377 121.149 358.377 123.794C358.377 134.754 359.782 140.044 364.197 145.713C369.415 152.326 376.439 155.35 386.473 155.35C403.932 155.35 413.766 145.902 413.766 129.085C413.766 118.314 408.95 105.465 400.32 93.5612L390.888 80.7121C378.446 63.1392 377.643 61.4386 377.643 53.6914C377.643 46.1332 380.452 41.9762 385.469 41.9762C389.684 41.9762 392.694 44.8105 393.296 49.9123C393.698 52.5577 393.898 54.8252 393.898 61.2497L412.16 59.5491C412.16 49.1565 412.16 48.5896 411.157 43.8657C408.548 32.3394 399.317 25.537 386.674 25.537C369.816 25.537 359.18 36.1185 359.18 52.7467C359.18 63.8951 362.993 72.587 374.432 88.8373L383.663 101.686C392.895 113.213 395.102 118.125 395.102 126.44C395.102 134.565 392.293 138.911 386.674 138.911C379.449 138.911 377.041 134.754 377.041 121.716V116.236L358.578 116.992Z" fill="white"/>
<path d="M480.409 59.3601C480.409 44.4326 479.807 41.2203 476.194 35.7406C471.779 29.5051 463.351 25.537 453.918 25.537C444.486 25.537 436.058 29.5051 431.642 35.7406C428.03 41.2203 427.428 44.4326 427.428 59.3601V121.338C427.428 136.265 428.03 139.477 431.642 144.957C436.058 151.382 444.486 155.35 453.918 155.35C463.351 155.35 471.779 151.382 476.194 144.957C479.807 139.477 480.409 136.454 480.409 121.338V59.3601ZM461.745 128.707C461.745 135.887 459.337 138.911 453.918 138.911C448.299 138.911 446.092 135.887 446.092 128.707V52.1798C446.092 44.9995 448.5 41.9762 453.918 41.9762C459.538 41.9762 461.745 44.9995 461.745 52.1798V128.707Z" fill="white"/>
<path d="M555.429 27.4265H536.765V101.686L512.081 27.4265H496.026V153.46H514.69V87.3256L536.765 153.46H555.429V27.4265Z" fill="white"/>
<path d="M177.282 185.143L172.302 177.618C174.82 177.397 177.088 175.571 177.088 172.251C177.088 168.848 174.681 166.69 171.306 166.69H163.892V185.143H166.188V177.812H169.867L174.571 185.143H177.282ZM171.029 175.792H166.188V168.738H171.029C173.215 168.738 174.709 170.176 174.709 172.251C174.709 174.326 173.215 175.792 171.029 175.792Z" fill="white"/>
<path d="M186.92 185.475C192.37 185.475 196.077 181.38 196.077 175.93C196.077 170.48 192.37 166.386 186.92 166.386C181.442 166.386 177.763 170.48 177.763 175.93C177.763 181.38 181.442 185.475 186.92 185.475ZM186.92 183.428C182.77 183.428 180.142 180.218 180.142 175.93C180.142 171.615 182.77 168.433 186.92 168.433C191.042 168.433 193.698 171.615 193.698 175.93C193.698 180.218 191.042 183.428 186.92 183.428Z" fill="white"/>
<path d="M205.861 185.475C211.311 185.475 215.018 181.38 215.018 175.93C215.018 170.48 211.311 166.386 205.861 166.386C200.383 166.386 196.704 170.48 196.704 175.93C196.704 181.38 200.383 185.475 205.861 185.475ZM205.861 183.428C201.711 183.428 199.083 180.218 199.083 175.93C199.083 171.615 201.711 168.433 205.861 168.433C209.983 168.433 212.639 171.615 212.639 175.93C212.639 180.218 209.983 183.428 205.861 183.428Z" fill="white"/>
<path d="M218.688 185.143V176.733H228.288V174.685H218.688V168.738H228.481V166.69H216.392V185.143H218.688Z" fill="white"/>
<path d="M231.685 185.143V166.69H229.389V185.143H231.685Z" fill="white"/>
<path d="M249.066 185.143V166.69H246.77V181.104L236.146 166.69H233.795V185.143H236.091V170.425L246.853 185.143H249.066Z" fill="white"/>
<path d="M259.911 185.503C262.926 185.503 265.444 184.23 267.159 182.321V175.654H258.527V177.701H264.863V181.463C263.95 182.376 262.124 183.455 259.911 183.455C255.872 183.455 252.801 180.301 252.801 175.93C252.801 171.532 255.872 168.433 259.911 168.433C262.124 168.433 264.088 169.484 265.25 170.978L267.076 169.844C265.444 167.825 263.175 166.386 259.911 166.386C254.654 166.386 250.422 170.204 250.422 175.93C250.422 181.657 254.654 185.503 259.911 185.503Z" fill="white"/>
<path d="M326.666 185.143V166.69H323.374L317.62 180.578L311.893 166.69H308.601V185.143H310.897V169.955L317.15 185.143H318.09L324.37 169.955V185.143H326.666Z" fill="white"/>
<path d="M340.847 185.143V183.096H331.054V176.733H340.654V174.685H331.054V168.738H340.847V166.69H328.758V185.143H340.847Z" fill="white"/>
<path d="M349.156 185.143V168.738H355.021V166.69H341.023V168.738H346.86V185.143H349.156Z" fill="white"/>
<path d="M369.792 185.143L362.35 166.69H359.501L352.087 185.143H354.715L356.347 181.048H365.532L367.164 185.143H369.792ZM364.84 179.001H357.011L360.94 169.07L364.84 179.001Z" fill="white"/>
<path d="M380.864 185.143V183.096H372.288V166.69H369.992V185.143H380.864Z" fill="white"/>
<path d="M431.621 185.475C436.601 185.475 438.427 182.736 438.427 180.053C438.427 173.164 427.499 175.543 427.499 171.393C427.499 169.65 429.076 168.461 431.289 168.461C433.309 168.461 435.245 169.152 436.629 170.674L438.012 168.986C436.463 167.354 434.277 166.414 431.455 166.414C427.831 166.414 425.12 168.489 425.12 171.532C425.12 178.116 436.048 175.488 436.048 180.246C436.048 181.657 434.996 183.428 431.704 183.428C429.104 183.428 427.112 182.155 425.895 180.799L424.539 182.542C426.061 184.258 428.412 185.475 431.621 185.475Z" fill="white"/>
<path d="M448.052 185.475C453.502 185.475 457.21 181.38 457.21 175.93C457.21 170.48 453.502 166.386 448.052 166.386C442.575 166.386 438.895 170.48 438.895 175.93C438.895 181.38 442.575 185.475 448.052 185.475ZM448.052 183.428C443.903 183.428 441.275 180.218 441.275 175.93C441.275 171.615 443.903 168.433 448.052 168.433C452.175 168.433 454.83 171.615 454.83 175.93C454.83 180.218 452.175 183.428 448.052 183.428Z" fill="white"/>
<path d="M469.455 185.143V183.096H460.879V166.69H458.583V185.143H469.455Z" fill="white"/>
<path d="M477.241 185.475C482.248 185.475 484.766 182.542 484.766 177.95V166.69H482.47V177.922C482.47 181.297 480.644 183.428 477.241 183.428C473.838 183.428 472.012 181.297 472.012 177.922V166.69H469.716V177.978C469.716 182.515 472.234 185.475 477.241 185.475Z" fill="white"/>
<path d="M493.735 185.143V168.738H499.6V166.69H485.601V168.738H491.439V185.143H493.735Z" fill="white"/>
<path d="M502.735 185.143V166.69H500.438V185.143H502.735Z" fill="white"/>
<path d="M513.254 185.475C518.704 185.475 522.412 181.38 522.412 175.93C522.412 170.48 518.704 166.386 513.254 166.386C507.777 166.386 504.097 170.48 504.097 175.93C504.097 181.38 507.777 185.475 513.254 185.475ZM513.254 183.428C509.105 183.428 506.476 180.218 506.476 175.93C506.476 171.615 509.105 168.433 513.254 168.433C517.376 168.433 520.032 171.615 520.032 175.93C520.032 180.218 517.376 183.428 513.254 183.428Z" fill="white"/>
<path d="M539.056 185.143V166.69H536.76V181.104L526.137 166.69H523.785V185.143H526.081V170.425L536.843 185.143H539.056Z" fill="white"/>
<path d="M547.135 185.475C552.114 185.475 553.94 182.736 553.94 180.053C553.94 173.164 543.012 175.543 543.012 171.393C543.012 169.65 544.589 168.461 546.803 168.461C548.822 168.461 550.759 169.152 552.142 170.674L553.525 168.986C551.976 167.354 549.79 166.414 546.969 166.414C543.344 166.414 540.633 168.489 540.633 171.532C540.633 178.116 551.561 175.488 551.561 180.246C551.561 181.657 550.51 183.428 547.218 183.428C544.617 183.428 542.625 182.155 541.408 180.799L540.052 182.542C541.574 184.258 543.925 185.475 547.135 185.475Z" fill="white"/>
<circle cx="288.355" cy="175.567" r="5.3202" fill="#E9322E"/>
<circle cx="401.143" cy="175.567" r="5.3202" fill="#E9322E"/>
<defs>
<linearGradient id="paint0_linear_5005_8" x1="35.1133" y1="0" x2="35.1133" y2="164.926" gradientUnits="userSpaceOnUse">
<stop stop-color="#E9322E"/>
<stop offset="1" stop-color="#E9322E"/>
</linearGradient>
<linearGradient id="paint1_linear_5005_8" x1="70.2266" y1="94.6995" x2="143.645" y2="94.6995" gradientUnits="userSpaceOnUse">
<stop stop-color="#802B26"/>
<stop offset="0.724881" stop-color="#E9322E"/>
</linearGradient>
<linearGradient id="paint2_linear_5005_8" x1="71.2906" y1="195.783" x2="-1.06404" y2="161.734" gradientUnits="userSpaceOnUse">
<stop stop-color="#C5C5C5"/>
<stop offset="1" stop-color="#A1A1A1"/>
</linearGradient>
<linearGradient id="paint3_linear_5005_8" x1="75.5468" y1="205.36" x2="142.581" y2="172.374" gradientUnits="userSpaceOnUse">
<stop stop-color="white"/>
<stop offset="1" stop-color="#BDBDBD"/>
</linearGradient>
</defs>
</svg>
